<?xml version="1.0" encoding="UTF-8"?>
<svg version="1.1" viewBox="0 0 2008 1988" width="1280" height="1280" xmlns="http://www.w3.org/2000/svg">
<path transform="translate(1189,603)" d="m0 0h20l23 3 15 5 16 9 14 11 10 11 9 15 6 14 5 19 1 9v33l-2 14-6 21v5l23 14 17 12 17 13 10 9 11 9 14 14 9 11 12 15 14 21 9 15 10 22 10 28 6 25 4 30 1 29-1 26-4 30-5 24-8 27-8 21-12 25-8 14-14 20-11 12-11 11-10 7-13 7-14 3-20 1-17-2-16-4-18-8-15-9-13-10-12-12-13-17-10-18-8-21-4-16-2-15v-17l3-19 3-11v-14l-1-6-5 2-11 8-14 11-18 11-2 2 5 5-2 13-5 13-4 8-9 10-9 8-16 8-19 8-32 9-24 5-27 4-33 3-17 1h-40l-56-4-56-9-30-7-16-8-10-9-7-10-4-10-2-13v-12l2-15 6-20 7-20 8-17 13-19 5-5h2l2-4 10-9 17-12 29-16 14-8 23-11 12-5 3-2-1-6-11-21-7-26-1-8v-11l3-18 4-14 9-16 9-10 6-7 15-10 16-7 16-4 6-1h29l16 3 16 6 15 9 12 11 7 8 9 17 5 16 2 11v25l-4 17-6 15-9 15-7 11 2 5 10 7 18 12 13 9 9 7 3 4 4-2 6-7 8-12 13-18 8-12 11-16 12-17 10-14 8-12 10-14 13-19 12-18 2-7-16 1h-15l-19-3-15-6-14-7-16-12-12-11-12-15-8-14-5-11-5-17-2-14v-13l4-24 5-15 8-16 9-12 8-9 18-13 17-9 20-7 12-2z" fill="#741A4D"/>
<path transform="translate(818,100)" d="m0 0 8 3 23 14 27 18 16 11 19 14 16 13 13 11 20 18 13 13 9 11 11 13 12 16 16 24 12 20 15 29 8 18 11 30 7 24 5 25 4 31 1 18v38l-2 29-4 28-6 31-7 27-9 26-7 13-8 11-9 10-7 4h-7l-8-4-6-7-5-10-5-19-4-31-10-159v-7l16 4 25 8 16 5 7-1 3-3-1-7-8-7-13-9-15-9-28-13-9-5-4-5-7-24-5-20-12-38-6-16-7-12-4-5-5-3h-5l-3 1-2 5-1 5 15 70 5 28v2l-9-1-29-8-28-6h-8l-7 3-3 4-1 7 4 8 10 5 44 15 26 8 5 3 2 5 2 25 1 22v57l-2 33-3 24-4 22-5 18-10 24-8 14-10 13-7 8-14 10-13 6-13 3-18 1-16-2-17-6-14-8-13-11-10-10-11-14-10-16-8-16-6-15-6-26-3-23v-34l5-35 6-25 10-28 10-23 17-37 13-31 10-27 12-34 13-50 5-24 4-30 2-27v-13l-2-25-3-17-4-17-1-3z" fill="#6B986B"/>
<path transform="translate(959,793)" d="m0 0h29l16 3 16 6 15 9 12 11 7 8 9 17 5 16 2 11v25l-4 17-6 15-9 15-7 11 2 5 10 7 18 12 13 9 9 7 3 5h-2v2h-2l-2 4-6 7-11 9-10 8-10 7-13 8-15 7-12 4-7 3-23 6-13 3-32 4-41 4-21 2-26 5-17 6-15 9-3 1v2l-4 4h-2l-2 5-2 7v13l3 6 4 6 2 1v2l5 2 9 6 20 9 9 3 19 1 63-1 37-4 36-7 21-6 24-8 19-7 20-8 26-12 16-8 10-6h3v2l5 2 1 4-3 15-7 15-6 8-9 9-13 8-26 11-32 9-24 5-27 4-33 3-17 1h-40l-56-4-56-9-30-7-16-8-10-9-7-10-4-10-2-13v-12l2-15 6-20 7-20 8-17 13-19 5-5h2l2-4 10-9 17-12 29-16 14-8 23-11 12-5 3-2-1-6-11-21-7-26-1-8v-11l3-18 4-14 9-16 9-10 6-7 15-10 16-7 16-4z" fill="#7391C6"/>
<path transform="translate(1455,1233)" d="m0 0h8l10 4 8 6 9 11 7 14 3 14v34l-2 20-5 25-6 26-8 26-9 19-8 10-8 7-9 4-4 1h-7l-11-4-8-6-7-7-5-8-5-16v-13l5-16-32 10-24 6-33 7-35 5-25 3-21 1-25-2-15-4-11-6-7-8-2-5v-13l3-10 6-9 11-10 19-13 14-10 16-11 12-6 5-1h17l18 3 21 5 14 2h11l14-3 10-5 11-8 3-1v-2l4-4h2l2-4 22-22 7-8 13-13 12-9 8-4z" fill="#741A4D"/>
<path transform="translate(538,587)" d="m0 0h33l19 4 16 7 13 8 13 11 9 10 7 11 8 16 4 13 2 12v25l-4 18-5 13-7 13-10 13-12 12-10 7-16 8-13 5-15 3h-33l-19-5-19-9-11-8-12-11-8-9-7-11-5-10-5-16-3-14v-23l4-19 6-16 8-14 10-13 9-8 14-9 14-7 15-5z" fill="#A24779"/>
<path transform="translate(926,1447)" d="m0 0h19l19 3 15 6 12 7 9 7 10 10 9 14 7 15 4 18v22l-4 17-5 12-8 14-8 9-8 7-10 7-15 8-13 4-13 2h-19l-17-3-16-7-14-9-18-18-7-11-5-12-4-14-1-7v-19l3-16 6-16 7-12 12-13 7-7 13-8 14-6 11-3z" fill="#741A4D"/>
<path transform="translate(939,1679)" d="m0 0h23l16 4 15 8 13 10 7 8 9 15 5 15 2 15-1 16-4 15-9 16-11 13-11 8-15 7-15 4-7 1h-16l-18-4-16-8-9-7-6-5-8-10-8-15-3-10-1-7v-23l4-17 7-14 8-10 7-7 14-9 11-5 10-3z" fill="#A24779"/>
<path transform="translate(500,922)" d="m0 0h20l21 5 12 6 9 7 6 5 9 11 6 11 5 13 2 9v24l-4 14-8 16-7 9-5 5-8 7-10 6-13 5-13 3h-23l-18-5-12-6-10-8-9-9-7-11-5-11-4-17v-22l4-18 7-14 11-13 9-8 14-8 11-4z" fill="#741A4D"/>
<path transform="translate(758,789)" d="m0 0h10l14 2 12 4 15 8 12 11 8 9 8 15 4 14 1 7v10l-3 18-5 12-6 10-9 10-9 8-12 7-15 5-11 2h-21l-14-3-17-8-9-7-9-8-9-13-6-13-3-13v-20l4-16 8-16 4-6 9-10 15-10 15-6z" fill="#741A4D"/>
<path transform="translate(1145,1187)" d="m0 0h15l17 3 12 5 10 6 10 9 8 9 9 17 4 15 1 16-3 16-5 14-11 16-10 10-15 9-13 5-8 2h-27l-16-5-16-9-12-11-7-8-6-10-5-14-2-11v-16l3-15 5-12 7-11 11-12 10-7 14-7 12-3z" fill="#741A4D"/>
<path transform="translate(954,1241)" d="m0 0h19l14 3 13 5 11 7 8 7 9 11 7 14 4 19v20l-5 19-7 12-9 11-9 8-16 8-13 4-5 1h-26l-15-4-17-9-11-9-12-16-6-16-2-10v-21l4-15 7-14 10-13 11-9 12-7 16-5z" fill="#7391C6"/>
<path transform="translate(762,1211)" d="m0 0h23l12 3 15 8 12 11 7 8 7 14 4 16v11l-4 18-8 15-11 12-10 7-14 7-7 2-9 1h-16l-12-2-12-5-11-7-13-13-8-15-4-14v-20l3-12 5-12 7-9 11-11 10-6 13-5z" fill="#A24779"/>
<path transform="translate(726,1494)" d="m0 0h9l14 3 16 8 9 7 9 12 6 12 3 10 1 15-2 14-6 15-8 11-10 9-16 8-11 4-5 1h-20l-18-6-11-7-10-9-8-11-5-11-3-12v-17l3-12 4-10 9-13 9-8 10-6 10-4 10-2z" fill="#A24779"/>
<path transform="translate(1120,1455)" d="m0 0h27l15 4 11 6 13 12 6 8 6 12 3 11v20l-3 12-7 14-9 11-10 8-14 7-11 3-8 1h-11l-12-3-16-7-11-8-7-8-8-13-3-9-1-5v-22l4-15 6-11 8-11 11-8 15-7z" fill="#7391C6"/>
<path transform="translate(614,1124)" d="m0 0 18 1 11 4 11 6 7 6 10 13 7 14 2 10v14l-2 10-5 13-8 11-8 8-10 6-10 4-10 2h-20l-13-4-11-6-7-6-8-10-8-16-3-12v-16l4-14 7-12 11-12 12-8 14-5z" fill="#A24779"/>
<path transform="translate(663,960)" d="m0 0h17l10 2 12 6 10 9 7 10 4 10 2 15-2 15-5 13-8 11-7 6-12 6-13 3h-13l-13-4-10-6-7-6-7-11-5-15-1-6v-13l4-13 7-13 6-7 10-7 9-4z" fill="#A24779"/>
<path transform="translate(1068,1357)" d="m0 0h11l12 3 10 6 9 9 6 12 2 7 1 13-3 14-6 11-7 7-14 8-11 2h-10l-14-3-10-6-6-5-7-11-3-9-1-6v-11l3-13 7-12 7-7 12-6z" fill="#A24879"/>
<path transform="translate(803,1361)" d="m0 0h17l11 4 11 7 7 8 4 8 3 10v15l-5 16-9 10-13 8-15 4h-9l-12-3-10-6-7-6-7-11-3-9-1-13 2-12 5-10 8-10 10-6 7-3z" fill="#7291C6"/>
<path transform="translate(1061,1615)" d="m0 0h8l14 3 9 6 8 9 5 12 1 5v8l-3 12-6 10-7 7-9 4-10 2-16-1-8-3-6-4-8-9-4-9-1-4v-17l3-10 6-9 8-7 10-4z" fill="#A24879"/>
<path transform="translate(600,837)" d="m0 0h19l10 5 6 5 6 10 3 10v10l-3 11-8 11-9 6-8 3h-14l-11-4-7-5-7-11-3-8v-16l5-12 7-8 8-5z" fill="#A24779"/>
<path transform="translate(1097 1e3)" d="m0 0h4l-1 4-6 9-13 13h-2v2l-19 13-14 8-15 7-20 8-17 5-24 5-20 3-68 6-20 3-16 4-16 8-9 7-7 9-1 4v11l4 8 8 8 8 4 9 3 17 7 8 2h49l29-1 38-4 7-2 32-6 5-2 10-2 23-8 11-4 8-4h4v-2l11-3 10-5 10-4 7-4 13-4 10-6 13-5 3 1-6 4-5 1-13 8-21 10-15 6-13 6-16 6-14 5-27 9-25 6-26 5-37 4-70 1-12-1-16-6-16-8-11-7v-2l-3-1-5-7-2-5v-13l3-8 2-4 4-4h2v-2l14-9 15-6 16-4 16-3 72-7 28-4 30-8 15-6 11-4 11-6 10-6 11-8 9-7 9-8h2l1-3 5-5 2-3h2z" fill="#A3477A"/>
<path transform="translate(695,1388)" d="m0 0h13l9 3 7 6 6 10 2 8v8l-4 11-9 10-9 4-14 1-10-3-6-4-6-8-3-9v-8l3-11 6-9 7-6z" fill="#A14879"/>
<path transform="translate(1151,1101)" d="m0 0h3l1 4-10 2 1-3z" fill="#6B976D"/>
</svg>
